<svg width="20" height="20" viewBox="0 0 20 20" fill="none" xmlns="http://www.w3.org/2000/svg">
<path fill-rule="evenodd" clip-rule="evenodd" d="M6.87389 5.01225C6.87381 5.00812 6.87377 5.00398 6.87377 4.99984V4.1665C6.87377 2.44061 8.27288 1.0415 9.99877 1.0415C11.7247 1.0415 13.1238 2.44061 13.1238 4.1665V4.99984C13.1238 5.00398 13.1237 5.00812 13.1236 5.01225C14.1964 5.04445 14.8527 5.16017 15.3539 5.57606C16.0482 6.15229 16.2311 7.12766 16.5968 9.07839L17.2218 12.4117C17.7362 15.1548 17.9933 16.5264 17.2436 17.4298C16.4938 18.3332 15.0984 18.3332 12.3075 18.3332H7.69006C4.89918 18.3332 3.50374 18.3332 2.75398 17.4298C2.00421 16.5264 2.26138 15.1548 2.7757 12.4117L3.4007 9.0784C3.76647 7.12766 3.94935 6.15229 4.64366 5.57606C5.14478 5.16017 5.80117 5.04445 6.87389 5.01225ZM8.12377 4.1665C8.12377 3.13097 8.96323 2.2915 9.99877 2.2915C11.0343 2.2915 11.8738 3.13097 11.8738 4.1665V4.99984C11.8738 4.99983 11.8738 4.99984 11.8738 4.99984C11.811 4.99982 11.7473 4.99984 11.6825 4.99984H8.31506C8.25025 4.99984 8.18649 4.99984 8.12377 4.99986C8.12377 4.99985 8.12377 4.99986 8.12377 4.99986V4.1665Z" fill="white"/>
</svg>
